<?xml version="1.0" standalone="no"?>
<!DOCTYPE svg PUBLIC "-//W3C//DTD SVG 20010904//EN"
 "http://www.w3.org/TR/2001/REC-SVG-20010904/DTD/svg10.dtd">
<svg version="1.0" xmlns="http://www.w3.org/2000/svg"
 width="1110.000000pt" height="1280.000000pt" viewBox="0 0 1110.000000 1280.000000"
 preserveAspectRatio="xMidYMid meet">
<g transform="translate(0.000000,1280.000000) scale(0.100000,-0.100000)"
fill="#000000" stroke="none">
<path d="M5353 12377 c-259 -516 -315 -658 -315 -807 0 -147 64 -268 185 -348
20 -13 37 -28 37 -33 0 -11 -39 -17 -155 -24 -309 -20 -673 -93 -959 -192
-361 -125 -600 -253 -1206 -643 -458 -295 -636 -408 -780 -495 -74 -45 -196
-121 -270 -169 -181 -116 -268 -150 -380 -149 -238 1 -470 145 -584 363 -47
90 -66 170 -66 281 1 425 457 700 796 481 75 -49 128 -109 168 -192 28 -59 31
-74 31 -165 0 -88 -3 -107 -27 -157 -55 -117 -167 -203 -280 -215 -213 -22
-384 199 -282 364 34 54 78 88 137 104 l40 11 -21 20 c-30 31 -107 35 -164 10
-62 -27 -125 -86 -155 -146 -53 -103 -40 -270 28 -378 91 -142 241 -222 419
-222 170 0 291 52 415 178 130 131 185 267 185 457 1 462 -449 815 -922 725
-256 -49 -480 -213 -610 -447 -263 -474 -55 -1077 457 -1320 125 -59 248 -90
390 -98 l110 -6 6 -80 c8 -93 10 -98 60 -185 51 -88 57 -125 27 -170 -20 -30
-32 -36 -77 -43 -67 -11 -87 -1 -130 65 -29 43 -35 48 -43 34 -14 -25 -2 -78
28 -122 l26 -37 -21 -64 c-48 -145 -5 -289 103 -348 17 -10 -26 -142 -629
-1925 -356 -1053 -697 -2063 -757 -2243 -61 -180 -117 -334 -125 -343 -13 -12
-10 -20 25 -62 212 -250 560 -479 898 -591 361 -121 712 -142 1091 -66 425 86
820 310 1117 633 58 64 65 75 52 85 -15 11 -1526 4461 -1526 4492 0 8 16 23
35 35 19 12 48 43 63 68 25 43 27 56 27 147 0 84 -4 107 -23 145 -22 44 -22
46 -5 111 23 90 10 130 -78 249 -66 89 -108 181 -97 211 3 8 45 26 94 41 86
26 125 46 609 313 763 420 1466 702 2105 844 253 56 680 121 796 121 l44 0 0
-158 c0 -188 12 -238 69 -304 l40 -45 -36 -34 c-54 -52 -93 -141 -93 -215 0
-87 24 -146 86 -214 30 -32 54 -61 54 -64 0 -4 -16 -21 -36 -38 -19 -17 -45
-50 -57 -72 l-22 -41 0 -2960 c0 -2867 1 -2961 19 -2995 10 -19 34 -52 54 -72
l35 -37 -41 -45 c-69 -75 -87 -118 -87 -216 0 -73 4 -93 28 -143 l29 -58 -89
-97 c-113 -123 -356 -349 -493 -459 -58 -46 -168 -126 -245 -178 -491 -327
-990 -489 -1727 -560 -66 -6 -67 -7 -79 -42 -7 -22 -10 -81 -8 -157 l4 -121
-472 -3 -472 -2 -20 -26 c-36 -46 -45 -101 -45 -284 l-1 -175 -322 -3 -322 -2
-19 -28 c-36 -51 -46 -103 -47 -232 0 -69 4 -187 9 -262 l9 -138 4577 0 4578
0 7 174 c9 225 -9 383 -52 457 l-17 29 -306 0 c-219 0 -309 3 -318 12 -8 8
-10 48 -6 137 7 141 -9 247 -46 307 l-22 34 -471 2 -472 3 4 121 c2 76 -1 135
-8 157 -12 35 -13 36 -79 42 -685 63 -1201 224 -1667 518 -248 157 -598 456
-816 699 l-71 78 29 57 c24 50 28 70 28 143 0 98 -18 141 -87 216 l-41 45 35
37 c20 20 44 53 54 72 18 34 19 128 19 2995 l0 2960 -22 41 c-12 22 -38 55
-57 72 -20 17 -36 34 -36 38 0 3 24 33 54 65 68 73 90 134 84 228 -6 78 -39
149 -92 200 l-35 34 35 40 c62 68 68 92 72 290 l4 177 43 0 c114 0 543 -65
790 -120 712 -158 1338 -417 2314 -957 288 -159 340 -185 427 -209 36 -10 68
-24 71 -32 12 -31 -29 -122 -96 -212 -88 -119 -101 -159 -78 -249 17 -65 17
-67 -5 -111 -19 -38 -23 -61 -23 -145 0 -91 2 -104 27 -147 15 -25 44 -56 63
-68 19 -12 35 -27 35 -35 0 -31 -1511 -4481 -1526 -4492 -13 -10 -6 -21 52
-85 451 -492 1117 -740 1776 -663 165 19 277 44 432 96 338 112 686 341 898
591 35 42 38 50 25 62 -8 9 -64 163 -125 343 -60 180 -401 1190 -757 2243
-603 1783 -646 1915 -629 1925 108 59 151 203 103 348 l-21 64 26 37 c30 44
42 97 28 122 -8 14 -14 9 -43 -34 -43 -66 -63 -76 -130 -65 -45 7 -57 13 -77
43 -30 45 -24 82 27 170 50 87 52 92 60 185 l6 80 110 6 c142 8 265 39 390 98
459 218 683 733 517 1188 -195 533 -811 758 -1260 459 -208 -138 -332 -365
-332 -605 0 -190 55 -326 185 -457 124 -126 245 -178 415 -178 178 0 328 80
419 222 68 108 81 275 28 378 -30 60 -93 119 -155 146 -57 25 -134 21 -164
-10 l-21 -20 40 -11 c59 -16 103 -50 137 -104 102 -165 -69 -386 -282 -364
-113 12 -225 98 -280 215 -24 50 -27 69 -27 157 0 91 3 106 31 165 143 296
525 360 777 130 195 -178 244 -465 121 -700 -66 -126 -162 -221 -294 -289
-100 -52 -186 -74 -290 -74 -113 0 -201 34 -380 149 -74 48 -196 124 -270 169
-141 86 -276 171 -830 527 -477 306 -673 416 -936 527 -368 154 -727 238
-1172 275 -84 7 -156 16 -160 21 -4 4 4 15 18 24 62 40 132 118 163 180 30 62
32 71 32 181 0 94 -4 128 -23 185 -39 115 -116 287 -233 515 -60 118 -140 277
-177 353 -37 75 -69 137 -72 137 -3 0 -91 -172 -197 -383z m-3595 -3842 c29
-109 -13 -267 -80 -301 -58 -30 -113 -3 -154 76 -35 69 -28 271 9 270 7 0 29
-4 50 -9 26 -6 53 -5 85 4 69 19 75 16 90 -40z m7665 41 c39 -10 66 -12 93 -5
22 4 44 9 51 9 37 1 44 -201 9 -270 -27 -52 -56 -79 -91 -86 -51 -9 -89 17
-122 83 -24 51 -28 69 -27 143 0 74 14 140 28 140 3 0 30 -6 59 -14z m-7831
-626 c2 -5 2 -964 0 -2130 l-2 -2120 -725 0 c-595 0 -725 2 -725 13 0 12 1244
3703 1381 4100 47 136 62 164 71 137z m817 -2105 c390 -1155 711 -2109 713
-2120 3 -20 -3 -20 -722 -20 l-725 0 -3 2115 c-1 1163 0 2121 3 2129 4 9 9 11
15 5 5 -5 329 -954 719 -2109z m7019 -21 l-3 -2119 -725 0 c-719 0 -725 0
-722 20 4 25 1418 4211 1428 4226 3 6 10 7 15 2 5 -5 8 -901 7 -2129z m151
1989 c137 -397 1381 -4088 1381 -4100 0 -11 -130 -13 -725 -13 l-725 0 -2
2120 c-2 1166 -1 2125 0 2130 9 27 24 -1 71 -137z"/>
</g>
</svg>
